# xmcd
#
# Track frame offsets: 
#        150
#        20645
#        41513
#        61995
#
# Disc length: 1102 seconds
#
# Revision: 0
# Processed by: cddbd v1.5.2PL0 Copyright (c) Steve Scherf et al.
# Submitted via: ExactAudioCopyFreeDBPlugin 1.0
#
DISCID=2d044c04
DTITLE=小林幸子 - 四季の新潟
DYEAR=2005
DGENRE=Country
TTITLE0=越後絶唱
TTITLE1=四季の新潟
TTITLE2=越後絶唱 (オリジナル・カラオケ)
TTITLE3=四季の新潟 (オリジナル・カラオケ)
EXTD=
EXTT0=
EXTT1=
EXTT2=
EXTT3=
PLAYORDER=
